<?xml version="1.0" encoding="UTF-8"?>
<svg version="1.1" viewBox="0 0 1024 1024" xmlns="http://www.w3.org/2000/svg"><defs><clipPath id="a"><path d="m7351 800.93a340 340 0 0 1 123 261.59 340 340 0 0 1-340 340 340 340 0 0 1-261.5-123.15 400 400 0 0 0 389.5 311.15 400 400 0 0 0 400-400 400 400 0 0 0-311-389.59z" fill="#0ff"/></clipPath></defs><g transform="translate(0 -98.52)"><g transform="matrix(.92773 0 0 .92773 -6225.2 -493.97)"><circle cx="7262" cy="1190.5" r="512" fill="#000"/><g clip-path="url(#a)"><circle cx="7134" cy="1062.5" r="600" clip-path="none" fill="#ff44ff"/><circle cx="7134" cy="1062.5" r="520" clip-path="none" fill="#e92daa"/><circle cx="7134" cy="1062.5" r="460" clip-path="none" fill="#d21755"/><circle cx="7134" cy="1062.5" r="400" clip-path="none" fill="#bc0000"/></g></g></g></svg>
